HIERARCHY
ROOT Hips
{
	OFFSET -0.001795 -0.223333 0.028219
	CHANNELS 6 Xposition Yposition Zposition Zrotation Yrotation Xrotation 
	JOINT LeftUpLeg
	{
		OFFSET 0.069520 -0.091406 -0.006815
		CHANNELS 3 Zrotation Yrotation Xrotation
		JOINT LeftLeg
		{
			OFFSET 0.034277 -0.375199 -0.004496
			CHANNELS 3 Zrotation Yrotation Xrotation
			JOINT LeftFoot
			{
				OFFSET -0.013596 -0.397961 -0.043693
				CHANNELS 3 Zrotation Yrotation Xrotation
				JOINT LeftToe
				{
					OFFSET 0.026358 -0.055791 0.119288
					CHANNELS 3 Zrotation Yrotation Xrotation
					End Site
					{
						OFFSET 0.000000 0.000000 0.000000
					}
				}
			}
		}
	}
	JOINT RightUpLeg
	{
		OFFSET -0.067670 -0.090522 -0.004320
		CHANNELS 3 Zrotation Yrotation Xrotation
		JOINT RightLeg
		{
			OFFSET -0.038290 -0.382569 -0.008850
			CHANNELS 3 Zrotation Yrotation Xrotation
			JOINT RightFoot
			{
				OFFSET 0.015774 -0.398415 -0.042312
				CHANNELS 3 Zrotation Yrotation Xrotation
				JOINT RightToe
				{
					OFFSET -0.025372 -0.048144 0.123348
					CHANNELS 3 Zrotation Yrotation Xrotation
					End Site
					{
						OFFSET 0.000000 0.000000 0.000000
					}
				}
			}
		}
	}
	JOINT Spine
	{
		OFFSET -0.002533 0.108963 -0.026696
		CHANNELS 3 Zrotation Yrotation Xrotation
		JOINT Spine1
		{
			OFFSET 0.005487 0.135180 0.001092
			CHANNELS 3 Zrotation Yrotation Xrotation
			JOINT Spine2
			{
				OFFSET 0.001457 0.052922 0.025425
				CHANNELS 3 Zrotation Yrotation Xrotation
				JOINT Neck
				{
					OFFSET -0.002778 0.213870 -0.042857
					CHANNELS 3 Zrotation Yrotation Xrotation
					JOINT Head
					{
						OFFSET 0.005152 0.064970 0.051349
						CHANNELS 3 Zrotation Yrotation Xrotation
						End Site
						{
							OFFSET 0.000000 0.000000 0.000000
						}
					}
				}
				JOINT LeftShoulder
				{
					OFFSET 0.078845 0.121749 -0.034090
					CHANNELS 3 Zrotation Yrotation Xrotation
					JOINT LeftArm
					{
						OFFSET 0.090977 0.030469 -0.008868
						CHANNELS 3 Zrotation Yrotation Xrotation
						JOINT LeftForeArm
						{
							OFFSET 0.259612 -0.012772 -0.027456
							CHANNELS 3 Zrotation Yrotation Xrotation
							JOINT LeftHand
							{
								OFFSET 0.249234 0.008986 -0.001171
								CHANNELS 3 Zrotation Yrotation Xrotation
								End Site
								{
									OFFSET 0.000000 0.000000 0.000000
								}
							}
						}
					}
				}
				JOINT RightShoulder
				{
					OFFSET -0.081759 0.118833 -0.038615
					CHANNELS 3 Zrotation Yrotation Xrotation
					JOINT RightArm
					{
						OFFSET -0.096012 0.032551 -0.009143
						CHANNELS 3 Zrotation Yrotation Xrotation
						JOINT RightForeArm
						{
							OFFSET -0.253742 -0.013329 -0.021401
							CHANNELS 3 Zrotation Yrotation Xrotation
							JOINT RightHand
							{
								OFFSET -0.255298 0.007772 -0.005559
								CHANNELS 3 Zrotation Yrotation Xrotation
								End Site
								{
									OFFSET 0.000000 0.000000 0.000000
								}
							}
						}
					}
				}
			}
		}
	}
}
MOTION
Frames: 7
Frame Time: 0.050000
-0.001419 0.963241 -0.054775 1.297214 8.297715 -0.154650 3.409918 0.437493 11.916354 -3.262405 0.212619 -15.665985 -0.653554 6.863459 18.956343 0.000000 0.000000 0.000000 -4.074211 -0.753901 9.806969 0.568053 -0.478044 -10.246719 -3.810920 -11.979712 18.069038 0.000000 0.000000 0.000000 -5.610535 -0.151154 -8.358437 5.008360 -0.877904 -17.882364 -1.366653 -5.457431 31.649582 0.196752 1.233708 -24.492624 0.000000 0.000000 0.000000 -11.610148 1.958151 -1.386289 -52.804617 -39.950612 9.687564 130.706232 -76.017965 -110.108431 0.000000 0.000000 0.000000 -8.846460 9.772405 2.839756 21.964990 58.438611 5.246086 -79.471699 37.333493 -26.911200 0.000000 0.000000 0.000000 
-0.001818 0.963214 -0.056630 1.376519 8.376598 -0.070403 3.241871 0.456756 11.897728 -3.094600 0.212267 -16.004835 -0.721068 6.827737 19.110073 0.000000 0.000000 0.000000 -4.137243 -0.765957 9.996773 0.572286 -0.511283 -10.913884 -3.798055 -11.971436 18.293057 0.000000 0.000000 0.000000 -5.881185 -0.172687 -8.382035 5.049065 -0.902646 -17.676312 -1.119490 -5.570870 31.495908 -0.014190 1.358655 -24.620584 0.000000 0.000000 0.000000 -11.132209 1.161621 -0.975403 -53.192215 -42.472317 11.175404 128.666104 -74.290416 -106.057556 0.000000 0.000000 0.000000 -8.059508 10.634494 3.125347 24.155317 58.244479 6.252636 -82.187528 40.466671 -30.818536 0.000000 0.000000 0.000000 
-0.002028 0.963186 -0.058478 1.294729 7.974744 0.049719 3.121828 0.477407 11.721961 -2.828501 0.235258 -16.080194 -0.504527 7.093017 19.159148 0.000000 0.000000 0.000000 -4.010039 -0.739350 9.690357 0.420219 -0.506525 -10.959855 -3.627262 -11.727155 18.263221 0.000000 0.000000 0.000000 -5.850424 -0.162583 -8.399258 5.137979 -0.943829 -17.582315 -0.962516 -5.513810 31.174866 -0.292558 1.507732 -24.723996 0.000000 0.000000 0.000000 -10.944609 0.707274 -0.736841 -53.045749 -43.861570 11.934643 128.766168 -73.179131 -105.025866 0.000000 0.000000 0.000000 -7.374687 11.222267 3.349018 25.933520 58.400524 7.117949 -84.800528 42.792402 -34.285045 0.000000 0.000000 0.000000 
-0.002321 0.963123 -0.060238 1.386192 7.668560 0.204782 3.131312 0.486915 11.764952 -3.082078 0.224251 -16.553943 -0.416769 7.245660 19.427441 0.000000 0.000000 0.000000 -4.010866 -0.737550 9.780143 0.198341 -0.536769 -11.688468 -3.445555 -11.488199 18.451147 0.000000 0.000000 0.000000 -6.053675 -0.174866 -8.542362 5.258021 -1.002236 -17.371374 -0.837903 -5.492195 31.018150 -0.510155 1.617320 -24.838459 0.000000 0.000000 0.000000 -10.696273 0.425226 -0.573165 -53.238116 -45.435698 12.913392 128.285558 -72.360583 -103.572908 0.000000 0.000000 0.000000 -7.431303 11.752181 3.499356 26.487573 58.700629 7.434021 -87.628386 43.304902 -36.430750 0.000000 0.000000 0.000000 
-0.002683 0.962428 -0.061974 1.338378 7.487752 0.175129 3.381869 0.453406 11.613987 -3.454644 0.212735 -16.400814 -0.285667 7.346923 19.244815 0.000000 0.000000 0.000000 -3.943497 -0.754226 9.950943 0.150719 -0.561225 -12.195042 -3.338305 -11.335195 18.431223 0.000000 0.000000 0.000000 -6.128105 -0.182104 -8.673990 5.195095 -1.004036 -17.117383 -0.747805 -5.661944 31.065533 -0.822351 1.768809 -25.126029 0.000000 0.000000 0.000000 -10.506147 0.189343 -0.417301 -52.936739 -46.775058 13.578385 125.441815 -71.568602 -99.439170 0.000000 0.000000 0.000000 -7.515037 11.807546 3.524571 26.588433 59.114775 7.494279 -88.834388 43.072192 -37.006146 0.000000 0.000000 0.000000 
-0.002869 0.961814 -0.063558 1.387866 7.541934 0.377737 3.535344 0.430901 11.635093 -3.818312 0.179049 -16.990707 -0.351151 7.299469 19.395383 0.000000 0.000000 0.000000 -4.204261 -0.728317 9.937072 0.547900 -0.592793 -12.704638 -3.334330 -11.328170 18.473575 0.000000 0.000000 0.000000 -6.509585 -0.220622 -9.035152 5.288404 -1.042511 -16.977661 -0.762431 -5.944955 31.253865 -1.041321 1.862111 -25.314860 0.000000 0.000000 0.000000 -10.050440 0.281535 -0.407546 -53.525236 -48.019008 14.557105 124.931831 -71.510013 -98.668323 0.000000 0.000000 0.000000 -7.603433 11.570470 3.471502 25.652418 59.307584 6.984294 -90.134739 42.561606 -37.428020 0.000000 0.000000 0.000000 
-0.002806 0.961429 -0.065148 1.438513 7.389827 0.493737 3.655993 0.424668 11.790955 -4.191001 0.146935 -17.600606 -0.338218 7.357188 19.626384 0.000000 0.000000 0.000000 -4.330197 -0.711893 9.940771 0.624119 -0.613731 -13.142884 -3.243588 -11.204888 18.530817 0.000000 0.000000 0.000000 -6.452146 -0.215772 -9.167434 5.059224 -0.972610 -16.968649 -0.825494 -6.028962 31.447492 -1.211644 1.942815 -25.530367 0.000000 0.000000 0.000000 -9.492960 0.150616 -0.306671 -53.704441 -48.410179 14.887524 123.921711 -71.332460 -97.265856 0.000000 0.000000 0.000000 -7.427086 11.342104 3.433411 24.822562 59.186287 6.478231 -91.571525 43.451989 -39.323823 0.000000 0.000000 0.000000 
